<?xml version="1.0" standalone="no"?><!DOCTYPE svg PUBLIC "-//W3C//DTD SVG 1.1//EN" "http://www.w3.org/Graphics/SVG/1.1/DTD/svg11.dtd"><svg t="1680708838145" class="icon" viewBox="0 0 1024 1024" version="1.1" xmlns="http://www.w3.org/2000/svg" p-id="1350" xmlns:xlink="http://www.w3.org/1999/xlink" width="48" height="48"><path d="M631.09179688 584.59765625c-27.86132813-19.6875-58.18359375-35.33203125-90.08789063-46.40625 67.67578125-41.1328125 109.16015625-114.43359375 109.16015625-193.88671875 0-125.06835938-101.77734375-226.84570313-226.84570313-226.84570313-125.15625 0-227.02148438 101.77734375-227.02148437 227.02148438 0 42.45117188 11.953125 84.11132813 34.453125 120.05859375 19.16015625 30.49804688 45.08789063 55.98632813 75.67382813 74.35546875-32.6953125 11.16210938-63.28125 26.89453125-91.66992188 46.93359375-30.84960938 21.796875-57.83203125 48.25195313-80.68359375 78.31054688C86.9609375 726.89257813 62 801.51171875 62 879.99804688c0 14.58984375 11.953125 26.54296875 26.54296875 26.54296874l668.40820313-1.0546875c14.58984375 0 26.54296875-11.953125 26.54296875-26.54296875 0-78.57421875-24.78515625-153.19335938-71.98242188-215.94726562-22.5-30.234375-49.5703125-56.6015625-80.41992187-78.3984375z" p-id="1351"></path><path d="M905.3984375 629.59765625c-34.18945313-49.13085938-80.15625-86.22070313-133.59375-107.31445313 23.64257813-16.5234375 43.50585938-38.75976563 57.83203125-64.59960937 16.69921875-29.97070313 25.48828125-64.07226563 25.48828125-98.7890625 0-108.28125-83.84765625-196.25976563-186.76757813-196.25976563-14.58984375 0-26.54296875 11.953125-26.54296874 26.54296876s14.85351563 33.3984375 26.27929687 42.5390625c52.29492188 42.71484375 85.95703125 161.98242188 24.69726563 231.59179687-27.421875 31.11328125-52.03125 35.77148438-50.9765625 65.390625v0.17578125c0 14.58984375 13.359375 20.390625 26.54296875 26.54296875 99.31640625 47.19726563 156.53320313 137.28515625 179.12109374 262.96875 5.36132813 30.05859375 55.81054688 21.00585938 87.97851563 19.95117188 14.58984375-0.3515625 26.54296875-11.953125 26.54296875-26.54296876-0.17578125-65.91796875-19.6875-128.84765625-56.6015625-182.19726562z" p-id="1352"></path></svg>